<?xml version="1.0" encoding="utf-8" standalone="no"?>
<!DOCTYPE svg PUBLIC "-//W3C//DTD SVG 1.1//EN"
  "http://www.w3.org/Graphics/SVG/1.1/DTD/svg11.dtd">
<svg xmlns:xlink="http://www.w3.org/1999/xlink" width="864pt" height="360pt" viewBox="0 0 864 360" xmlns="http://www.w3.org/2000/svg" version="1.1">
 <metadata>
  <rdf:RDF xmlns:dc="http://purl.org/dc/elements/1.1/" xmlns:cc="http://creativecommons.org/ns#" xmlns:rdf="http://www.w3.org/1999/02/22-rdf-syntax-ns#">
   <cc:Work>
    <dc:type rdf:resource="http://purl.org/dc/dcmitype/StillImage"/>
    <dc:date>2025-11-02T12:50:22.470663</dc:date>
    <dc:format>image/svg+xml</dc:format>
    <dc:creator>
     <cc:Agent>
      <dc:title>Matplotlib v3.10.7, https://matplotlib.org/</dc:title>
     </cc:Agent>
    </dc:creator>
   </cc:Work>
  </rdf:RDF>
 </metadata>
 <defs>
  <style type="text/css">*{stroke-linejoin: round; stroke-linecap: butt}</style>
 </defs>
 <g id="figure_1">
  <g id="patch_1">
   <path d="M 0 360 
L 864 360 
L 864 0 
L 0 0 
z
" style="fill: #ffffff"/>
  </g>
  <g id="axes_1">
   <g id="patch_2">
    <path d="M 53.9 310.6 
L 853.2 310.6 
L 853.2 30.6 
L 53.9 30.6 
z
" style="fill: #ffffff"/>
   </g>
   <g id="matplotlib.axis_1">
    <g id="xtick_1">
     <g id="line2d_1">
      <path d="M 69.271154 310.6 
L 69.271154 30.6 
" clip-path="url(#p2e5902860e)" style="fill: none; stroke-dasharray: 0.8,1.32; stroke-dashoffset: 0; stroke: #b0b0b0; stroke-opacity: 0.5; stroke-width: 0.8"/>
     </g>
     <g id="line2d_2">
      <defs>
       <path id="m59755a01cb" d="M 0 0 
L 0 3.5 
" style="stroke: #000000; stroke-width: 0.8"/>
      </defs>
      <g>
       <use xlink:href="#m59755a01cb" x="69.271154" y="310.6" style="stroke: #000000; stroke-width: 0.8"/>
      </g>
     </g>
     <g id="text_1">
      <!-- 0 -->
      <g transform="translate(65.135529 327.477969) scale(0.13 -0.13)">
       <defs>
        <path id="DejaVuSans-30" d="M 2034 4250 
Q 1547 4250 1301 3770 
Q 1056 3291 1056 2328 
Q 1056 1369 1301 889 
Q 1547 409 2034 409 
Q 2525 409 2770 889 
Q 3016 1369 3016 2328 
Q 3016 3291 2770 3770 
Q 2525 4250 2034 4250 
z
M 2034 4750 
Q 2819 4750 3233 4129 
Q 3647 3509 3647 2328 
Q 3647 1150 3233 529 
Q 2819 -91 2034 -91 
Q 1250 -91 836 529 
Q 422 1150 422 2328 
Q 422 3509 836 4129 
Q 1250 4750 2034 4750 
z
" transform="scale(0.015625)"/>
       </defs>
       <use xlink:href="#DejaVuSans-30"/>
      </g>
     </g>
    </g>
    <g id="xtick_2">
     <g id="line2d_3">
      <path d="M 179.06511 310.6 
L 179.06511 30.6 
" clip-path="url(#p2e5902860e)" style="fill: none; stroke-dasharray: 0.8,1.32; stroke-dashoffset: 0; stroke: #b0b0b0; stroke-opacity: 0.5; stroke-width: 0.8"/>
     </g>
     <g id="line2d_4">
      <g>
       <use xlink:href="#m59755a01cb" x="179.06511" y="310.6" style="stroke: #000000; stroke-width: 0.8"/>
      </g>
     </g>
     <g id="text_2">
      <!-- 5 -->
      <g transform="translate(174.929485 327.477969) scale(0.13 -0.13)">
       <defs>
        <path id="DejaVuSans-35" d="M 691 4666 
L 3169 4666 
L 3169 4134 
L 1269 4134 
L 1269 2991 
Q 1406 3038 1543 3061 
Q 1681 3084 1819 3084 
Q 2600 3084 3056 2656 
Q 3513 2228 3513 1497 
Q 3513 744 3044 326 
Q 2575 -91 1722 -91 
Q 1428 -91 1123 -41 
Q 819 9 494 109 
L 494 744 
Q 775 591 1075 516 
Q 1375 441 1709 441 
Q 2250 441 2565 725 
Q 2881 1009 2881 1497 
Q 2881 1984 2565 2268 
Q 2250 2553 1709 2553 
Q 1456 2553 1204 2497 
Q 953 2441 691 2322 
L 691 4666 
z
" transform="scale(0.015625)"/>
       </defs>
       <use xlink:href="#DejaVuSans-35"/>
      </g>
     </g>
    </g>
    <g id="xtick_3">
     <g id="line2d_5">
      <path d="M 288.859066 310.6 
L 288.859066 30.6 
" clip-path="url(#p2e5902860e)" style="fill: none; stroke-dasharray: 0.8,1.32; stroke-dashoffset: 0; stroke: #b0b0b0; stroke-opacity: 0.5; stroke-width: 0.8"/>
     </g>
     <g id="line2d_6">
      <g>
       <use xlink:href="#m59755a01cb" x="288.859066" y="310.6" style="stroke: #000000; stroke-width: 0.8"/>
      </g>
     </g>
     <g id="text_3">
      <!-- 10 -->
      <g transform="translate(280.587816 327.477969) scale(0.13 -0.13)">
       <defs>
        <path id="DejaVuSans-31" d="M 794 531 
L 1825 531 
L 1825 4091 
L 703 3866 
L 703 4441 
L 1819 4666 
L 2450 4666 
L 2450 531 
L 3481 531 
L 3481 0 
L 794 0 
L 794 531 
z
" transform="scale(0.015625)"/>
       </defs>
       <use xlink:href="#DejaVuSans-31"/>
       <use xlink:href="#DejaVuSans-30" transform="translate(63.623047 0)"/>
      </g>
     </g>
    </g>
    <g id="xtick_4">
     <g id="line2d_7">
      <path d="M 398.653022 310.6 
L 398.653022 30.6 
" clip-path="url(#p2e5902860e)" style="fill: none; stroke-dasharray: 0.8,1.32; stroke-dashoffset: 0; stroke: #b0b0b0; stroke-opacity: 0.5; stroke-width: 0.8"/>
     </g>
     <g id="line2d_8">
      <g>
       <use xlink:href="#m59755a01cb" x="398.653022" y="310.6" style="stroke: #000000; stroke-width: 0.8"/>
      </g>
     </g>
     <g id="text_4">
      <!-- 15 -->
      <g transform="translate(390.381772 327.477969) scale(0.13 -0.13)">
       <use xlink:href="#DejaVuSans-31"/>
       <use xlink:href="#DejaVuSans-35" transform="translate(63.623047 0)"/>
      </g>
     </g>
    </g>
    <g id="xtick_5">
     <g id="line2d_9">
      <path d="M 508.446978 310.6 
L 508.446978 30.6 
" clip-path="url(#p2e5902860e)" style="fill: none; stroke-dasharray: 0.8,1.32; stroke-dashoffset: 0; stroke: #b0b0b0; stroke-opacity: 0.5; stroke-width: 0.8"/>
     </g>
     <g id="line2d_10">
      <g>
       <use xlink:href="#m59755a01cb" x="508.446978" y="310.6" style="stroke: #000000; stroke-width: 0.8"/>
      </g>
     </g>
     <g id="text_5">
      <!-- 20 -->
      <g transform="translate(500.175728 327.477969) scale(0.13 -0.13)">
       <defs>
        <path id="DejaVuSans-32" d="M 1228 531 
L 3431 531 
L 3431 0 
L 469 0 
L 469 531 
Q 828 903 1448 1529 
Q 2069 2156 2228 2338 
Q 2531 2678 2651 2914 
Q 2772 3150 2772 3378 
Q 2772 3750 2511 3984 
Q 2250 4219 1831 4219 
Q 1534 4219 1204 4116 
Q 875 4013 500 3803 
L 500 4441 
Q 881 4594 1212 4672 
Q 1544 4750 1819 4750 
Q 2544 4750 2975 4387 
Q 3406 4025 3406 3419 
Q 3406 3131 3298 2873 
Q 3191 2616 2906 2266 
Q 2828 2175 2409 1742 
Q 1991 1309 1228 531 
z
" transform="scale(0.015625)"/>
       </defs>
       <use xlink:href="#DejaVuSans-32"/>
       <use xlink:href="#DejaVuSans-30" transform="translate(63.623047 0)"/>
      </g>
     </g>
    </g>
    <g id="xtick_6">
     <g id="line2d_11">
      <path d="M 618.240934 310.6 
L 618.240934 30.6 
" clip-path="url(#p2e5902860e)" style="fill: none; stroke-dasharray: 0.8,1.32; stroke-dashoffset: 0; stroke: #b0b0b0; stroke-opacity: 0.5; stroke-width: 0.8"/>
     </g>
     <g id="line2d_12">
      <g>
       <use xlink:href="#m59755a01cb" x="618.240934" y="310.6" style="stroke: #000000; stroke-width: 0.8"/>
      </g>
     </g>
     <g id="text_6">
      <!-- 25 -->
      <g transform="translate(609.969684 327.477969) scale(0.13 -0.13)">
       <use xlink:href="#DejaVuSans-32"/>
       <use xlink:href="#DejaVuSans-35" transform="translate(63.623047 0)"/>
      </g>
     </g>
    </g>
    <g id="xtick_7">
     <g id="line2d_13">
      <path d="M 728.03489 310.6 
L 728.03489 30.6 
" clip-path="url(#p2e5902860e)" style="fill: none; stroke-dasharray: 0.8,1.32; stroke-dashoffset: 0; stroke: #b0b0b0; stroke-opacity: 0.5; stroke-width: 0.8"/>
     </g>
     <g id="line2d_14">
      <g>
       <use xlink:href="#m59755a01cb" x="728.03489" y="310.6" style="stroke: #000000; stroke-width: 0.8"/>
      </g>
     </g>
     <g id="text_7">
      <!-- 30 -->
      <g transform="translate(719.76364 327.477969) scale(0.13 -0.13)">
       <defs>
        <path id="DejaVuSans-33" d="M 2597 2516 
Q 3050 2419 3304 2112 
Q 3559 1806 3559 1356 
Q 3559 666 3084 287 
Q 2609 -91 1734 -91 
Q 1441 -91 1130 -33 
Q 819 25 488 141 
L 488 750 
Q 750 597 1062 519 
Q 1375 441 1716 441 
Q 2309 441 2620 675 
Q 2931 909 2931 1356 
Q 2931 1769 2642 2001 
Q 2353 2234 1838 2234 
L 1294 2234 
L 1294 2753 
L 1863 2753 
Q 2328 2753 2575 2939 
Q 2822 3125 2822 3475 
Q 2822 3834 2567 4026 
Q 2313 4219 1838 4219 
Q 1578 4219 1281 4162 
Q 984 4106 628 3988 
L 628 4550 
Q 988 4650 1302 4700 
Q 1616 4750 1894 4750 
Q 2613 4750 3031 4423 
Q 3450 4097 3450 3541 
Q 3450 3153 3228 2886 
Q 3006 2619 2597 2516 
z
" transform="scale(0.015625)"/>
       </defs>
       <use xlink:href="#DejaVuSans-33"/>
       <use xlink:href="#DejaVuSans-30" transform="translate(63.623047 0)"/>
      </g>
     </g>
    </g>
    <g id="xtick_8">
     <g id="line2d_15">
      <path d="M 837.828846 310.6 
L 837.828846 30.6 
" clip-path="url(#p2e5902860e)" style="fill: none; stroke-dasharray: 0.8,1.32; stroke-dashoffset: 0; stroke: #b0b0b0; stroke-opacity: 0.5; stroke-width: 0.8"/>
     </g>
     <g id="line2d_16">
      <g>
       <use xlink:href="#m59755a01cb" x="837.828846" y="310.6" style="stroke: #000000; stroke-width: 0.8"/>
      </g>
     </g>
     <g id="text_8">
      <!-- 35 -->
      <g transform="translate(829.557596 327.477969) scale(0.13 -0.13)">
       <use xlink:href="#DejaVuSans-33"/>
       <use xlink:href="#DejaVuSans-35" transform="translate(63.623047 0)"/>
      </g>
     </g>
    </g>
    <g id="text_9">
     <!-- Time (×10 seconds) -->
     <g transform="translate(373.065 346.339063) scale(0.16 -0.16)">
      <defs>
       <path id="DejaVuSans-54" d="M -19 4666 
L 3928 4666 
L 3928 4134 
L 2272 4134 
L 2272 0 
L 1638 0 
L 1638 4134 
L -19 4134 
L -19 4666 
z
" transform="scale(0.015625)"/>
       <path id="DejaVuSans-69" d="M 603 3500 
L 1178 3500 
L 1178 0 
L 603 0 
L 603 3500 
z
M 603 4863 
L 1178 4863 
L 1178 4134 
L 603 4134 
L 603 4863 
z
" transform="scale(0.015625)"/>
       <path id="DejaVuSans-6d" d="M 3328 2828 
Q 3544 3216 3844 3400 
Q 4144 3584 4550 3584 
Q 5097 3584 5394 3201 
Q 5691 2819 5691 2113 
L 5691 0 
L 5113 0 
L 5113 2094 
Q 5113 2597 4934 2840 
Q 4756 3084 4391 3084 
Q 3944 3084 3684 2787 
Q 3425 2491 3425 1978 
L 3425 0 
L 2847 0 
L 2847 2094 
Q 2847 2600 2669 2842 
Q 2491 3084 2119 3084 
Q 1678 3084 1418 2786 
Q 1159 2488 1159 1978 
L 1159 0 
L 581 0 
L 581 3500 
L 1159 3500 
L 1159 2956 
Q 1356 3278 1631 3431 
Q 1906 3584 2284 3584 
Q 2666 3584 2933 3390 
Q 3200 3197 3328 2828 
z
" transform="scale(0.015625)"/>
       <path id="DejaVuSans-65" d="M 3597 1894 
L 3597 1613 
L 953 1613 
Q 991 1019 1311 708 
Q 1631 397 2203 397 
Q 2534 397 2845 478 
Q 3156 559 3463 722 
L 3463 178 
Q 3153 47 2828 -22 
Q 2503 -91 2169 -91 
Q 1331 -91 842 396 
Q 353 884 353 1716 
Q 353 2575 817 3079 
Q 1281 3584 2069 3584 
Q 2775 3584 3186 3129 
Q 3597 2675 3597 1894 
z
M 3022 2063 
Q 3016 2534 2758 2815 
Q 2500 3097 2075 3097 
Q 1594 3097 1305 2825 
Q 1016 2553 972 2059 
L 3022 2063 
z
" transform="scale(0.015625)"/>
       <path id="DejaVuSans-20" transform="scale(0.015625)"/>
       <path id="DejaVuSans-28" d="M 1984 4856 
Q 1566 4138 1362 3434 
Q 1159 2731 1159 2009 
Q 1159 1288 1364 580 
Q 1569 -128 1984 -844 
L 1484 -844 
Q 1016 -109 783 600 
Q 550 1309 550 2009 
Q 550 2706 781 3412 
Q 1013 4119 1484 4856 
L 1984 4856 
z
" transform="scale(0.015625)"/>
       <path id="DejaVuSans-d7" d="M 4488 3438 
L 3059 2003 
L 4488 575 
L 4116 197 
L 2681 1631 
L 1247 197 
L 878 575 
L 2303 2003 
L 878 3438 
L 1247 3816 
L 2681 2381 
L 4116 3816 
L 4488 3438 
z
" transform="scale(0.015625)"/>
       <path id="DejaVuSans-73" d="M 2834 3397 
L 2834 2853 
Q 2591 2978 2328 3040 
Q 2066 3103 1784 3103 
Q 1356 3103 1142 2972 
Q 928 2841 928 2578 
Q 928 2378 1081 2264 
Q 1234 2150 1697 2047 
L 1894 2003 
Q 2506 1872 2764 1633 
Q 3022 1394 3022 966 
Q 3022 478 2636 193 
Q 2250 -91 1575 -91 
Q 1294 -91 989 -36 
Q 684 19 347 128 
L 347 722 
Q 666 556 975 473 
Q 1284 391 1588 391 
Q 1994 391 2212 530 
Q 2431 669 2431 922 
Q 2431 1156 2273 1281 
Q 2116 1406 1581 1522 
L 1381 1569 
Q 847 1681 609 1914 
Q 372 2147 372 2553 
Q 372 3047 722 3315 
Q 1072 3584 1716 3584 
Q 2034 3584 2315 3537 
Q 2597 3491 2834 3397 
z
" transform="scale(0.015625)"/>
       <path id="DejaVuSans-63" d="M 3122 3366 
L 3122 2828 
Q 2878 2963 2633 3030 
Q 2388 3097 2138 3097 
Q 1578 3097 1268 2742 
Q 959 2388 959 1747 
Q 959 1106 1268 751 
Q 1578 397 2138 397 
Q 2388 397 2633 464 
Q 2878 531 3122 666 
L 3122 134 
Q 2881 22 2623 -34 
Q 2366 -91 2075 -91 
Q 1284 -91 818 406 
Q 353 903 353 1747 
Q 353 2603 823 3093 
Q 1294 3584 2113 3584 
Q 2378 3584 2631 3529 
Q 2884 3475 3122 3366 
z
" transform="scale(0.015625)"/>
       <path id="DejaVuSans-6f" d="M 1959 3097 
Q 1497 3097 1228 2736 
Q 959 2375 959 1747 
Q 959 1119 1226 758 
Q 1494 397 1959 397 
Q 2419 397 2687 759 
Q 2956 1122 2956 1747 
Q 2956 2369 2687 2733 
Q 2419 3097 1959 3097 
z
M 1959 3584 
Q 2709 3584 3137 3096 
Q 3566 2609 3566 1747 
Q 3566 888 3137 398 
Q 2709 -91 1959 -91 
Q 1206 -91 779 398 
Q 353 888 353 1747 
Q 353 2609 779 3096 
Q 1206 3584 1959 3584 
z
" transform="scale(0.015625)"/>
       <path id="DejaVuSans-6e" d="M 3513 2113 
L 3513 0 
L 2938 0 
L 2938 2094 
Q 2938 2591 2744 2837 
Q 2550 3084 2163 3084 
Q 1697 3084 1428 2787 
Q 1159 2491 1159 1978 
L 1159 0 
L 581 0 
L 581 3500 
L 1159 3500 
L 1159 2956 
Q 1366 3272 1645 3428 
Q 1925 3584 2291 3584 
Q 2894 3584 3203 3211 
Q 3513 2838 3513 2113 
z
" transform="scale(0.015625)"/>
       <path id="DejaVuSans-64" d="M 2906 2969 
L 2906 4863 
L 3481 4863 
L 3481 0 
L 2906 0 
L 2906 525 
Q 2725 213 2448 61 
Q 2172 -91 1784 -91 
Q 1150 -91 751 415 
Q 353 922 353 1747 
Q 353 2572 751 3078 
Q 1150 3584 1784 3584 
Q 2172 3584 2448 3432 
Q 2725 3281 2906 2969 
z
M 947 1747 
Q 947 1113 1208 752 
Q 1469 391 1925 391 
Q 2381 391 2643 752 
Q 2906 1113 2906 1747 
Q 2906 2381 2643 2742 
Q 2381 3103 1925 3103 
Q 1469 3103 1208 2742 
Q 947 2381 947 1747 
z
" transform="scale(0.015625)"/>
       <path id="DejaVuSans-29" d="M 513 4856 
L 1013 4856 
Q 1481 4119 1714 3412 
Q 1947 2706 1947 2009 
Q 1947 1309 1714 600 
Q 1481 -109 1013 -844 
L 513 -844 
Q 928 -128 1133 580 
Q 1338 1288 1338 2009 
Q 1338 2731 1133 3434 
Q 928 4138 513 4856 
z
" transform="scale(0.015625)"/>
      </defs>
      <use xlink:href="#DejaVuSans-54"/>
      <use xlink:href="#DejaVuSans-69" transform="translate(57.958984 0)"/>
      <use xlink:href="#DejaVuSans-6d" transform="translate(85.742188 0)"/>
      <use xlink:href="#DejaVuSans-65" transform="translate(183.154297 0)"/>
      <use xlink:href="#DejaVuSans-20" transform="translate(244.677734 0)"/>
      <use xlink:href="#DejaVuSans-28" transform="translate(276.464844 0)"/>
      <use xlink:href="#DejaVuSans-d7" transform="translate(315.478516 0)"/>
      <use xlink:href="#DejaVuSans-31" transform="translate(399.267578 0)"/>
      <use xlink:href="#DejaVuSans-30" transform="translate(462.890625 0)"/>
      <use xlink:href="#DejaVuSans-20" transform="translate(526.513672 0)"/>
      <use xlink:href="#DejaVuSans-73" transform="translate(558.300781 0)"/>
      <use xlink:href="#DejaVuSans-65" transform="translate(610.400391 0)"/>
      <use xlink:href="#DejaVuSans-63" transform="translate(671.923828 0)"/>
      <use xlink:href="#DejaVuSans-6f" transform="translate(726.904297 0)"/>
      <use xlink:href="#DejaVuSans-6e" transform="translate(788.085938 0)"/>
      <use xlink:href="#DejaVuSans-64" transform="translate(851.464844 0)"/>
      <use xlink:href="#DejaVuSans-73" transform="translate(914.941406 0)"/>
      <use xlink:href="#DejaVuSans-29" transform="translate(967.041016 0)"/>
     </g>
    </g>
   </g>
   <g id="matplotlib.axis_2">
    <g id="ytick_1">
     <g id="line2d_17">
      <path d="M 53.9 240.84221 
L 853.2 240.84221 
" clip-path="url(#p2e5902860e)" style="fill: none; stroke-dasharray: 0.8,1.32; stroke-dashoffset: 0; stroke: #b0b0b0; stroke-opacity: 0.5; stroke-width: 0.8"/>
     </g>
     <g id="line2d_18">
      <defs>
       <path id="m14f3d03e97" d="M 0 0 
L -3.5 0 
" style="stroke: #000000; stroke-width: 0.8"/>
      </defs>
      <g>
       <use xlink:href="#m14f3d03e97" x="53.9" y="240.84221" style="stroke: #000000; stroke-width: 0.8"/>
      </g>
     </g>
     <g id="text_10">
      <!-- 30 -->
      <g transform="translate(30.3575 245.781194) scale(0.13 -0.13)">
       <use xlink:href="#DejaVuSans-33"/>
       <use xlink:href="#DejaVuSans-30" transform="translate(63.623047 0)"/>
      </g>
     </g>
    </g>
    <g id="ytick_2">
     <g id="line2d_19">
      <path d="M 53.9 190.87425 
L 853.2 190.87425 
" clip-path="url(#p2e5902860e)" style="fill: none; stroke-dasharray: 0.8,1.32; stroke-dashoffset: 0; stroke: #b0b0b0; stroke-opacity: 0.5; stroke-width: 0.8"/>
     </g>
     <g id="line2d_20">
      <g>
       <use xlink:href="#m14f3d03e97" x="53.9" y="190.87425" style="stroke: #000000; stroke-width: 0.8"/>
      </g>
     </g>
     <g id="text_11">
      <!-- 35 -->
      <g transform="translate(30.3575 195.813234) scale(0.13 -0.13)">
       <use xlink:href="#DejaVuSans-33"/>
       <use xlink:href="#DejaVuSans-35" transform="translate(63.623047 0)"/>
      </g>
     </g>
    </g>
    <g id="ytick_3">
     <g id="line2d_21">
      <path d="M 53.9 140.90629 
L 853.2 140.90629 
" clip-path="url(#p2e5902860e)" style="fill: none; stroke-dasharray: 0.8,1.32; stroke-dashoffset: 0; stroke: #b0b0b0; stroke-opacity: 0.5; stroke-width: 0.8"/>
     </g>
     <g id="line2d_22">
      <g>
       <use xlink:href="#m14f3d03e97" x="53.9" y="140.90629" style="stroke: #000000; stroke-width: 0.8"/>
      </g>
     </g>
     <g id="text_12">
      <!-- 40 -->
      <g transform="translate(30.3575 145.845274) scale(0.13 -0.13)">
       <defs>
        <path id="DejaVuSans-34" d="M 2419 4116 
L 825 1625 
L 2419 1625 
L 2419 4116 
z
M 2253 4666 
L 3047 4666 
L 3047 1625 
L 3713 1625 
L 3713 1100 
L 3047 1100 
L 3047 0 
L 2419 0 
L 2419 1100 
L 313 1100 
L 313 1709 
L 2253 4666 
z
" transform="scale(0.015625)"/>
       </defs>
       <use xlink:href="#DejaVuSans-34"/>
       <use xlink:href="#DejaVuSans-30" transform="translate(63.623047 0)"/>
      </g>
     </g>
    </g>
    <g id="ytick_4">
     <g id="line2d_23">
      <path d="M 53.9 90.93833 
L 853.2 90.93833 
" clip-path="url(#p2e5902860e)" style="fill: none; stroke-dasharray: 0.8,1.32; stroke-dashoffset: 0; stroke: #b0b0b0; stroke-opacity: 0.5; stroke-width: 0.8"/>
     </g>
     <g id="line2d_24">
      <g>
       <use xlink:href="#m14f3d03e97" x="53.9" y="90.93833" style="stroke: #000000; stroke-width: 0.8"/>
      </g>
     </g>
     <g id="text_13">
      <!-- 45 -->
      <g transform="translate(30.3575 95.877315) scale(0.13 -0.13)">
       <use xlink:href="#DejaVuSans-34"/>
       <use xlink:href="#DejaVuSans-35" transform="translate(63.623047 0)"/>
      </g>
     </g>
    </g>
    <g id="ytick_5">
     <g id="line2d_25">
      <path d="M 53.9 40.97037 
L 853.2 40.97037 
" clip-path="url(#p2e5902860e)" style="fill: none; stroke-dasharray: 0.8,1.32; stroke-dashoffset: 0; stroke: #b0b0b0; stroke-opacity: 0.5; stroke-width: 0.8"/>
     </g>
     <g id="line2d_26">
      <g>
       <use xlink:href="#m14f3d03e97" x="53.9" y="40.97037" style="stroke: #000000; stroke-width: 0.8"/>
      </g>
     </g>
     <g id="text_14">
      <!-- 50 -->
      <g transform="translate(30.3575 45.909355) scale(0.13 -0.13)">
       <use xlink:href="#DejaVuSans-35"/>
       <use xlink:href="#DejaVuSans-30" transform="translate(63.623047 0)"/>
      </g>
     </g>
    </g>
    <g id="text_15">
     <!-- Average EDR (×10) -->
     <g transform="translate(23.03 248.4375) rotate(-90) scale(0.16 -0.16)">
      <defs>
       <path id="DejaVuSans-41" d="M 2188 4044 
L 1331 1722 
L 3047 1722 
L 2188 4044 
z
M 1831 4666 
L 2547 4666 
L 4325 0 
L 3669 0 
L 3244 1197 
L 1141 1197 
L 716 0 
L 50 0 
L 1831 4666 
z
" transform="scale(0.015625)"/>
       <path id="DejaVuSans-76" d="M 191 3500 
L 800 3500 
L 1894 563 
L 2988 3500 
L 3597 3500 
L 2284 0 
L 1503 0 
L 191 3500 
z
" transform="scale(0.015625)"/>
       <path id="DejaVuSans-72" d="M 2631 2963 
Q 2534 3019 2420 3045 
Q 2306 3072 2169 3072 
Q 1681 3072 1420 2755 
Q 1159 2438 1159 1844 
L 1159 0 
L 581 0 
L 581 3500 
L 1159 3500 
L 1159 2956 
Q 1341 3275 1631 3429 
Q 1922 3584 2338 3584 
Q 2397 3584 2469 3576 
Q 2541 3569 2628 3553 
L 2631 2963 
z
" transform="scale(0.015625)"/>
       <path id="DejaVuSans-61" d="M 2194 1759 
Q 1497 1759 1228 1600 
Q 959 1441 959 1056 
Q 959 750 1161 570 
Q 1363 391 1709 391 
Q 2188 391 2477 730 
Q 2766 1069 2766 1631 
L 2766 1759 
L 2194 1759 
z
M 3341 1997 
L 3341 0 
L 2766 0 
L 2766 531 
Q 2569 213 2275 61 
Q 1981 -91 1556 -91 
Q 1019 -91 701 211 
Q 384 513 384 1019 
Q 384 1609 779 1909 
Q 1175 2209 1959 2209 
L 2766 2209 
L 2766 2266 
Q 2766 2663 2505 2880 
Q 2244 3097 1772 3097 
Q 1472 3097 1187 3025 
Q 903 2953 641 2809 
L 641 3341 
Q 956 3463 1253 3523 
Q 1550 3584 1831 3584 
Q 2591 3584 2966 3190 
Q 3341 2797 3341 1997 
z
" transform="scale(0.015625)"/>
       <path id="DejaVuSans-67" d="M 2906 1791 
Q 2906 2416 2648 2759 
Q 2391 3103 1925 3103 
Q 1463 3103 1205 2759 
Q 947 2416 947 1791 
Q 947 1169 1205 825 
Q 1463 481 1925 481 
Q 2391 481 2648 825 
Q 2906 1169 2906 1791 
z
M 3481 434 
Q 3481 -459 3084 -895 
Q 2688 -1331 1869 -1331 
Q 1566 -1331 1297 -1286 
Q 1028 -1241 775 -1147 
L 775 -588 
Q 1028 -725 1275 -790 
Q 1522 -856 1778 -856 
Q 2344 -856 2625 -561 
Q 2906 -266 2906 331 
L 2906 616 
Q 2728 306 2450 153 
Q 2172 0 1784 0 
Q 1141 0 747 490 
Q 353 981 353 1791 
Q 353 2603 747 3093 
Q 1141 3584 1784 3584 
Q 2172 3584 2450 3431 
Q 2728 3278 2906 2969 
L 2906 3500 
L 3481 3500 
L 3481 434 
z
" transform="scale(0.015625)"/>
       <path id="DejaVuSans-45" d="M 628 4666 
L 3578 4666 
L 3578 4134 
L 1259 4134 
L 1259 2753 
L 3481 2753 
L 3481 2222 
L 1259 2222 
L 1259 531 
L 3634 531 
L 3634 0 
L 628 0 
L 628 4666 
z
" transform="scale(0.015625)"/>
       <path id="DejaVuSans-44" d="M 1259 4147 
L 1259 519 
L 2022 519 
Q 2988 519 3436 956 
Q 3884 1394 3884 2338 
Q 3884 3275 3436 3711 
Q 2988 4147 2022 4147 
L 1259 4147 
z
M 628 4666 
L 1925 4666 
Q 3281 4666 3915 4102 
Q 4550 3538 4550 2338 
Q 4550 1131 3912 565 
Q 3275 0 1925 0 
L 628 0 
L 628 4666 
z
" transform="scale(0.015625)"/>
       <path id="DejaVuSans-52" d="M 2841 2188 
Q 3044 2119 3236 1894 
Q 3428 1669 3622 1275 
L 4263 0 
L 3584 0 
L 2988 1197 
Q 2756 1666 2539 1819 
Q 2322 1972 1947 1972 
L 1259 1972 
L 1259 0 
L 628 0 
L 628 4666 
L 2053 4666 
Q 2853 4666 3247 4331 
Q 3641 3997 3641 3322 
Q 3641 2881 3436 2590 
Q 3231 2300 2841 2188 
z
M 1259 4147 
L 1259 2491 
L 2053 2491 
Q 2509 2491 2742 2702 
Q 2975 2913 2975 3322 
Q 2975 3731 2742 3939 
Q 2509 4147 2053 4147 
L 1259 4147 
z
" transform="scale(0.015625)"/>
      </defs>
      <use xlink:href="#DejaVuSans-41"/>
      <use xlink:href="#DejaVuSans-76" transform="translate(62.533203 0)"/>
      <use xlink:href="#DejaVuSans-65" transform="translate(121.712891 0)"/>
      <use xlink:href="#DejaVuSans-72" transform="translate(183.236328 0)"/>
      <use xlink:href="#DejaVuSans-61" transform="translate(224.349609 0)"/>
      <use xlink:href="#DejaVuSans-67" transform="translate(285.628906 0)"/>
      <use xlink:href="#DejaVuSans-65" transform="translate(349.105469 0)"/>
      <use xlink:href="#DejaVuSans-20" transform="translate(410.628906 0)"/>
      <use xlink:href="#DejaVuSans-45" transform="translate(442.416016 0)"/>
      <use xlink:href="#DejaVuSans-44" transform="translate(505.599609 0)"/>
      <use xlink:href="#DejaVuSans-52" transform="translate(582.601562 0)"/>
      <use xlink:href="#DejaVuSans-20" transform="translate(652.083984 0)"/>
      <use xlink:href="#DejaVuSans-28" transform="translate(683.871094 0)"/>
      <use xlink:href="#DejaVuSans-d7" transform="translate(722.884766 0)"/>
      <use xlink:href="#DejaVuSans-31" transform="translate(806.673828 0)"/>
      <use xlink:href="#DejaVuSans-30" transform="translate(870.296875 0)"/>
      <use xlink:href="#DejaVuSans-29" transform="translate(933.919922 0)"/>
     </g>
    </g>
   </g>
   <g id="line2d_27">
    <path d="M 69.271154 129.793416 
L 91.229945 126.315646 
L 113.188736 135.199949 
L 135.147527 114.713085 
L 157.106319 126.915261 
L 179.06511 106.588295 
L 201.023901 107.377789 
L 222.982692 106.158571 
L 244.941484 107.447744 
L 266.900275 112.9742 
L 288.859066 121.308856 
L 310.817857 124.097068 
L 332.776648 118.000977 
L 354.73544 135.739603 
L 376.694231 138.977527 
L 398.653022 147.242227 
L 420.611813 150.969837 
L 442.570604 154.117819 
L 464.529396 154.397639 
L 486.488187 160.423775 
L 508.446978 162.472461 
L 530.405769 164.591103 
L 552.36456 159.754204 
L 574.323352 166.609809 
L 596.282143 155.45696 
L 618.240934 144.224163 
L 640.199725 152.22903 
L 662.158516 142.915002 
L 684.117308 120.449407 
L 706.076099 137.9282 
L 728.03489 136.519103 
L 749.993681 124.596748 
L 771.952473 107.077981 
L 793.911264 102.420967 
L 815.870055 119.609946 
L 837.828846 107.68759 
" clip-path="url(#p2e5902860e)" style="fill: none; stroke: #1f77b4; stroke-width: 2; stroke-linecap: square"/>
    <defs>
     <path id="m8abf52fa70" d="M 0 3 
C 0.795609 3 1.55874 2.683901 2.12132 2.12132 
C 2.683901 1.55874 3 0.795609 3 0 
C 3 -0.795609 2.683901 -1.55874 2.12132 -2.12132 
C 1.55874 -2.683901 0.795609 -3 0 -3 
C -0.795609 -3 -1.55874 -2.683901 -2.12132 -2.12132 
C -2.683901 -1.55874 -3 -0.795609 -3 0 
C -3 0.795609 -2.683901 1.55874 -2.12132 2.12132 
C -1.55874 2.683901 -0.795609 3 0 3 
z
" style="stroke: #1f77b4"/>
    </defs>
    <g clip-path="url(#p2e5902860e)">
     <use xlink:href="#m8abf52fa70" x="69.271154" y="129.793416" style="fill: #1f77b4; stroke: #1f77b4"/>
     <use xlink:href="#m8abf52fa70" x="91.229945" y="126.315646" style="fill: #1f77b4; stroke: #1f77b4"/>
     <use xlink:href="#m8abf52fa70" x="113.188736" y="135.199949" style="fill: #1f77b4; stroke: #1f77b4"/>
     <use xlink:href="#m8abf52fa70" x="135.147527" y="114.713085" style="fill: #1f77b4; stroke: #1f77b4"/>
     <use xlink:href="#m8abf52fa70" x="157.106319" y="126.915261" style="fill: #1f77b4; stroke: #1f77b4"/>
     <use xlink:href="#m8abf52fa70" x="179.06511" y="106.588295" style="fill: #1f77b4; stroke: #1f77b4"/>
     <use xlink:href="#m8abf52fa70" x="201.023901" y="107.377789" style="fill: #1f77b4; stroke: #1f77b4"/>
     <use xlink:href="#m8abf52fa70" x="222.982692" y="106.158571" style="fill: #1f77b4; stroke: #1f77b4"/>
     <use xlink:href="#m8abf52fa70" x="244.941484" y="107.447744" style="fill: #1f77b4; stroke: #1f77b4"/>
     <use xlink:href="#m8abf52fa70" x="266.900275" y="112.9742" style="fill: #1f77b4; stroke: #1f77b4"/>
     <use xlink:href="#m8abf52fa70" x="288.859066" y="121.308856" style="fill: #1f77b4; stroke: #1f77b4"/>
     <use xlink:href="#m8abf52fa70" x="310.817857" y="124.097068" style="fill: #1f77b4; stroke: #1f77b4"/>
     <use xlink:href="#m8abf52fa70" x="332.776648" y="118.000977" style="fill: #1f77b4; stroke: #1f77b4"/>
     <use xlink:href="#m8abf52fa70" x="354.73544" y="135.739603" style="fill: #1f77b4; stroke: #1f77b4"/>
     <use xlink:href="#m8abf52fa70" x="376.694231" y="138.977527" style="fill: #1f77b4; stroke: #1f77b4"/>
     <use xlink:href="#m8abf52fa70" x="398.653022" y="147.242227" style="fill: #1f77b4; stroke: #1f77b4"/>
     <use xlink:href="#m8abf52fa70" x="420.611813" y="150.969837" style="fill: #1f77b4; stroke: #1f77b4"/>
     <use xlink:href="#m8abf52fa70" x="442.570604" y="154.117819" style="fill: #1f77b4; stroke: #1f77b4"/>
     <use xlink:href="#m8abf52fa70" x="464.529396" y="154.397639" style="fill: #1f77b4; stroke: #1f77b4"/>
     <use xlink:href="#m8abf52fa70" x="486.488187" y="160.423775" style="fill: #1f77b4; stroke: #1f77b4"/>
     <use xlink:href="#m8abf52fa70" x="508.446978" y="162.472461" style="fill: #1f77b4; stroke: #1f77b4"/>
     <use xlink:href="#m8abf52fa70" x="530.405769" y="164.591103" style="fill: #1f77b4; stroke: #1f77b4"/>
     <use xlink:href="#m8abf52fa70" x="552.36456" y="159.754204" style="fill: #1f77b4; stroke: #1f77b4"/>
     <use xlink:href="#m8abf52fa70" x="574.323352" y="166.609809" style="fill: #1f77b4; stroke: #1f77b4"/>
     <use xlink:href="#m8abf52fa70" x="596.282143" y="155.45696" style="fill: #1f77b4; stroke: #1f77b4"/>
     <use xlink:href="#m8abf52fa70" x="618.240934" y="144.224163" style="fill: #1f77b4; stroke: #1f77b4"/>
     <use xlink:href="#m8abf52fa70" x="640.199725" y="152.22903" style="fill: #1f77b4; stroke: #1f77b4"/>
     <use xlink:href="#m8abf52fa70" x="662.158516" y="142.915002" style="fill: #1f77b4; stroke: #1f77b4"/>
     <use xlink:href="#m8abf52fa70" x="684.117308" y="120.449407" style="fill: #1f77b4; stroke: #1f77b4"/>
     <use xlink:href="#m8abf52fa70" x="706.076099" y="137.9282" style="fill: #1f77b4; stroke: #1f77b4"/>
     <use xlink:href="#m8abf52fa70" x="728.03489" y="136.519103" style="fill: #1f77b4; stroke: #1f77b4"/>
     <use xlink:href="#m8abf52fa70" x="749.993681" y="124.596748" style="fill: #1f77b4; stroke: #1f77b4"/>
     <use xlink:href="#m8abf52fa70" x="771.952473" y="107.077981" style="fill: #1f77b4; stroke: #1f77b4"/>
     <use xlink:href="#m8abf52fa70" x="793.911264" y="102.420967" style="fill: #1f77b4; stroke: #1f77b4"/>
     <use xlink:href="#m8abf52fa70" x="815.870055" y="119.609946" style="fill: #1f77b4; stroke: #1f77b4"/>
     <use xlink:href="#m8abf52fa70" x="837.828846" y="107.68759" style="fill: #1f77b4; stroke: #1f77b4"/>
    </g>
   </g>
   <g id="line2d_28">
    <path d="M 69.271154 230.528823 
L 91.229945 233.24708 
L 113.188736 227.800572 
L 135.147527 224.772514 
L 157.106319 220.305378 
L 179.06511 214.868864 
L 201.023901 227.300893 
L 222.982692 218.466557 
L 244.941484 221.364699 
L 266.900275 213.65964 
L 288.859066 229.689361 
L 310.817857 217.377256 
L 332.776648 227.810566 
L 354.73544 226.311527 
L 376.694231 244.999544 
L 398.653022 240.582376 
L 420.611813 247.567897 
L 442.570604 262.558285 
L 464.529396 258.291021 
L 486.488187 261.758798 
L 508.446978 266.225933 
L 530.405769 265.426446 
L 552.36456 268.824267 
L 574.323352 261.379041 
L 596.282143 254.053738 
L 618.240934 257.401592 
L 640.199725 258.141117 
L 662.158516 238.073985 
L 684.117308 241.891537 
L 706.076099 234.786093 
L 728.03489 231.817996 
L 749.993681 229.509476 
L 771.952473 219.096154 
L 793.911264 223.06361 
L 815.870055 217.776999 
L 837.828846 225.631963 
" clip-path="url(#p2e5902860e)" style="fill: none; stroke: #d62728; stroke-width: 2; stroke-linecap: square"/>
    <defs>
     <path id="mff746294db" d="M 0 -3 
L -3 3 
L 3 3 
z
" style="stroke: #d62728; stroke-linejoin: miter"/>
    </defs>
    <g clip-path="url(#p2e5902860e)">
     <use xlink:href="#mff746294db" x="69.271154" y="230.528823" style="fill: #d62728; stroke: #d62728; stroke-linejoin: miter"/>
     <use xlink:href="#mff746294db" x="91.229945" y="233.24708" style="fill: #d62728; stroke: #d62728; stroke-linejoin: miter"/>
     <use xlink:href="#mff746294db" x="113.188736" y="227.800572" style="fill: #d62728; stroke: #d62728; stroke-linejoin: miter"/>
     <use xlink:href="#mff746294db" x="135.147527" y="224.772514" style="fill: #d62728; stroke: #d62728; stroke-linejoin: miter"/>
     <use xlink:href="#mff746294db" x="157.106319" y="220.305378" style="fill: #d62728; stroke: #d62728; stroke-linejoin: miter"/>
     <use xlink:href="#mff746294db" x="179.06511" y="214.868864" style="fill: #d62728; stroke: #d62728; stroke-linejoin: miter"/>
     <use xlink:href="#mff746294db" x="201.023901" y="227.300893" style="fill: #d62728; stroke: #d62728; stroke-linejoin: miter"/>
     <use xlink:href="#mff746294db" x="222.982692" y="218.466557" style="fill: #d62728; stroke: #d62728; stroke-linejoin: miter"/>
     <use xlink:href="#mff746294db" x="244.941484" y="221.364699" style="fill: #d62728; stroke: #d62728; stroke-linejoin: miter"/>
     <use xlink:href="#mff746294db" x="266.900275" y="213.65964" style="fill: #d62728; stroke: #d62728; stroke-linejoin: miter"/>
     <use xlink:href="#mff746294db" x="288.859066" y="229.689361" style="fill: #d62728; stroke: #d62728; stroke-linejoin: miter"/>
     <use xlink:href="#mff746294db" x="310.817857" y="217.377256" style="fill: #d62728; stroke: #d62728; stroke-linejoin: miter"/>
     <use xlink:href="#mff746294db" x="332.776648" y="227.810566" style="fill: #d62728; stroke: #d62728; stroke-linejoin: miter"/>
     <use xlink:href="#mff746294db" x="354.73544" y="226.311527" style="fill: #d62728; stroke: #d62728; stroke-linejoin: miter"/>
     <use xlink:href="#mff746294db" x="376.694231" y="244.999544" style="fill: #d62728; stroke: #d62728; stroke-linejoin: miter"/>
     <use xlink:href="#mff746294db" x="398.653022" y="240.582376" style="fill: #d62728; stroke: #d62728; stroke-linejoin: miter"/>
     <use xlink:href="#mff746294db" x="420.611813" y="247.567897" style="fill: #d62728; stroke: #d62728; stroke-linejoin: miter"/>
     <use xlink:href="#mff746294db" x="442.570604" y="262.558285" style="fill: #d62728; stroke: #d62728; stroke-linejoin: miter"/>
     <use xlink:href="#mff746294db" x="464.529396" y="258.291021" style="fill: #d62728; stroke: #d62728; stroke-linejoin: miter"/>
     <use xlink:href="#mff746294db" x="486.488187" y="261.758798" style="fill: #d62728; stroke: #d62728; stroke-linejoin: miter"/>
     <use xlink:href="#mff746294db" x="508.446978" y="266.225933" style="fill: #d62728; stroke: #d62728; stroke-linejoin: miter"/>
     <use xlink:href="#mff746294db" x="530.405769" y="265.426446" style="fill: #d62728; stroke: #d62728; stroke-linejoin: miter"/>
     <use xlink:href="#mff746294db" x="552.36456" y="268.824267" style="fill: #d62728; stroke: #d62728; stroke-linejoin: miter"/>
     <use xlink:href="#mff746294db" x="574.323352" y="261.379041" style="fill: #d62728; stroke: #d62728; stroke-linejoin: miter"/>
     <use xlink:href="#mff746294db" x="596.282143" y="254.053738" style="fill: #d62728; stroke: #d62728; stroke-linejoin: miter"/>
     <use xlink:href="#mff746294db" x="618.240934" y="257.401592" style="fill: #d62728; stroke: #d62728; stroke-linejoin: miter"/>
     <use xlink:href="#mff746294db" x="640.199725" y="258.141117" style="fill: #d62728; stroke: #d62728; stroke-linejoin: miter"/>
     <use xlink:href="#mff746294db" x="662.158516" y="238.073985" style="fill: #d62728; stroke: #d62728; stroke-linejoin: miter"/>
     <use xlink:href="#mff746294db" x="684.117308" y="241.891537" style="fill: #d62728; stroke: #d62728; stroke-linejoin: miter"/>
     <use xlink:href="#mff746294db" x="706.076099" y="234.786093" style="fill: #d62728; stroke: #d62728; stroke-linejoin: miter"/>
     <use xlink:href="#mff746294db" x="728.03489" y="231.817996" style="fill: #d62728; stroke: #d62728; stroke-linejoin: miter"/>
     <use xlink:href="#mff746294db" x="749.993681" y="229.509476" style="fill: #d62728; stroke: #d62728; stroke-linejoin: miter"/>
     <use xlink:href="#mff746294db" x="771.952473" y="219.096154" style="fill: #d62728; stroke: #d62728; stroke-linejoin: miter"/>
     <use xlink:href="#mff746294db" x="793.911264" y="223.06361" style="fill: #d62728; stroke: #d62728; stroke-linejoin: miter"/>
     <use xlink:href="#mff746294db" x="815.870055" y="217.776999" style="fill: #d62728; stroke: #d62728; stroke-linejoin: miter"/>
     <use xlink:href="#mff746294db" x="837.828846" y="225.631963" style="fill: #d62728; stroke: #d62728; stroke-linejoin: miter"/>
    </g>
   </g>
   <g id="line2d_29">
    <path d="M 69.271154 279.407481 
L 91.229945 271.672441 
L 113.188736 265.016709 
L 135.147527 266.815555 
L 157.106319 254.803258 
L 179.06511 268.984165 
L 201.023901 251.225552 
L 222.982692 251.355468 
L 244.941484 253.813892 
L 266.900275 250.765847 
L 288.859066 253.933815 
L 310.817857 248.247461 
L 332.776648 261.748804 
L 354.73544 262.62824 
L 376.694231 274.580576 
L 398.653022 277.198897 
L 420.611813 276.189544 
L 442.570604 288.291784 
L 464.529396 287.961996 
L 486.488187 290.81017 
L 508.446978 290.81017 
L 530.405769 290.550336 
L 552.36456 286.822726 
L 574.323352 290.81017 
L 596.282143 290.81017 
L 618.240934 285.503572 
L 640.199725 280.087045 
L 662.158516 276.889096 
L 684.117308 290.290503 
L 706.076099 280.736629 
L 728.03489 270.023498 
L 749.993681 263.487689 
L 771.952473 263.317798 
L 793.911264 259.660143 
L 815.870055 256.592111 
L 837.828846 260.109855 
" clip-path="url(#p2e5902860e)" style="fill: none; stroke: #2ca02c; stroke-width: 2; stroke-linecap: square"/>
    <defs>
     <path id="m9d773c6516" d="M 0 4.242641 
L 4.242641 0 
L 0 -4.242641 
L -4.242641 0 
z
" style="stroke: #2ca02c; stroke-linejoin: miter"/>
    </defs>
    <g clip-path="url(#p2e5902860e)">
     <use xlink:href="#m9d773c6516" x="69.271154" y="279.407481" style="fill: #2ca02c; stroke: #2ca02c; stroke-linejoin: miter"/>
     <use xlink:href="#m9d773c6516" x="91.229945" y="271.672441" style="fill: #2ca02c; stroke: #2ca02c; stroke-linejoin: miter"/>
     <use xlink:href="#m9d773c6516" x="113.188736" y="265.016709" style="fill: #2ca02c; stroke: #2ca02c; stroke-linejoin: miter"/>
     <use xlink:href="#m9d773c6516" x="135.147527" y="266.815555" style="fill: #2ca02c; stroke: #2ca02c; stroke-linejoin: miter"/>
     <use xlink:href="#m9d773c6516" x="157.106319" y="254.803258" style="fill: #2ca02c; stroke: #2ca02c; stroke-linejoin: miter"/>
     <use xlink:href="#m9d773c6516" x="179.06511" y="268.984165" style="fill: #2ca02c; stroke: #2ca02c; stroke-linejoin: miter"/>
     <use xlink:href="#m9d773c6516" x="201.023901" y="251.225552" style="fill: #2ca02c; stroke: #2ca02c; stroke-linejoin: miter"/>
     <use xlink:href="#m9d773c6516" x="222.982692" y="251.355468" style="fill: #2ca02c; stroke: #2ca02c; stroke-linejoin: miter"/>
     <use xlink:href="#m9d773c6516" x="244.941484" y="253.813892" style="fill: #2ca02c; stroke: #2ca02c; stroke-linejoin: miter"/>
     <use xlink:href="#m9d773c6516" x="266.900275" y="250.765847" style="fill: #2ca02c; stroke: #2ca02c; stroke-linejoin: miter"/>
     <use xlink:href="#m9d773c6516" x="288.859066" y="253.933815" style="fill: #2ca02c; stroke: #2ca02c; stroke-linejoin: miter"/>
     <use xlink:href="#m9d773c6516" x="310.817857" y="248.247461" style="fill: #2ca02c; stroke: #2ca02c; stroke-linejoin: miter"/>
     <use xlink:href="#m9d773c6516" x="332.776648" y="261.748804" style="fill: #2ca02c; stroke: #2ca02c; stroke-linejoin: miter"/>
     <use xlink:href="#m9d773c6516" x="354.73544" y="262.62824" style="fill: #2ca02c; stroke: #2ca02c; stroke-linejoin: miter"/>
     <use xlink:href="#m9d773c6516" x="376.694231" y="274.580576" style="fill: #2ca02c; stroke: #2ca02c; stroke-linejoin: miter"/>
     <use xlink:href="#m9d773c6516" x="398.653022" y="277.198897" style="fill: #2ca02c; stroke: #2ca02c; stroke-linejoin: miter"/>
     <use xlink:href="#m9d773c6516" x="420.611813" y="276.189544" style="fill: #2ca02c; stroke: #2ca02c; stroke-linejoin: miter"/>
     <use xlink:href="#m9d773c6516" x="442.570604" y="288.291784" style="fill: #2ca02c; stroke: #2ca02c; stroke-linejoin: miter"/>
     <use xlink:href="#m9d773c6516" x="464.529396" y="287.961996" style="fill: #2ca02c; stroke: #2ca02c; stroke-linejoin: miter"/>
     <use xlink:href="#m9d773c6516" x="486.488187" y="290.81017" style="fill: #2ca02c; stroke: #2ca02c; stroke-linejoin: miter"/>
     <use xlink:href="#m9d773c6516" x="508.446978" y="290.81017" style="fill: #2ca02c; stroke: #2ca02c; stroke-linejoin: miter"/>
     <use xlink:href="#m9d773c6516" x="530.405769" y="290.550336" style="fill: #2ca02c; stroke: #2ca02c; stroke-linejoin: miter"/>
     <use xlink:href="#m9d773c6516" x="552.36456" y="286.822726" style="fill: #2ca02c; stroke: #2ca02c; stroke-linejoin: miter"/>
     <use xlink:href="#m9d773c6516" x="574.323352" y="290.81017" style="fill: #2ca02c; stroke: #2ca02c; stroke-linejoin: miter"/>
     <use xlink:href="#m9d773c6516" x="596.282143" y="290.81017" style="fill: #2ca02c; stroke: #2ca02c; stroke-linejoin: miter"/>
     <use xlink:href="#m9d773c6516" x="618.240934" y="285.503572" style="fill: #2ca02c; stroke: #2ca02c; stroke-linejoin: miter"/>
     <use xlink:href="#m9d773c6516" x="640.199725" y="280.087045" style="fill: #2ca02c; stroke: #2ca02c; stroke-linejoin: miter"/>
     <use xlink:href="#m9d773c6516" x="662.158516" y="276.889096" style="fill: #2ca02c; stroke: #2ca02c; stroke-linejoin: miter"/>
     <use xlink:href="#m9d773c6516" x="684.117308" y="290.290503" style="fill: #2ca02c; stroke: #2ca02c; stroke-linejoin: miter"/>
     <use xlink:href="#m9d773c6516" x="706.076099" y="280.736629" style="fill: #2ca02c; stroke: #2ca02c; stroke-linejoin: miter"/>
     <use xlink:href="#m9d773c6516" x="728.03489" y="270.023498" style="fill: #2ca02c; stroke: #2ca02c; stroke-linejoin: miter"/>
     <use xlink:href="#m9d773c6516" x="749.993681" y="263.487689" style="fill: #2ca02c; stroke: #2ca02c; stroke-linejoin: miter"/>
     <use xlink:href="#m9d773c6516" x="771.952473" y="263.317798" style="fill: #2ca02c; stroke: #2ca02c; stroke-linejoin: miter"/>
     <use xlink:href="#m9d773c6516" x="793.911264" y="259.660143" style="fill: #2ca02c; stroke: #2ca02c; stroke-linejoin: miter"/>
     <use xlink:href="#m9d773c6516" x="815.870055" y="256.592111" style="fill: #2ca02c; stroke: #2ca02c; stroke-linejoin: miter"/>
     <use xlink:href="#m9d773c6516" x="837.828846" y="260.109855" style="fill: #2ca02c; stroke: #2ca02c; stroke-linejoin: miter"/>
    </g>
   </g>
   <g id="patch_3">
    <path d="M 53.9 310.6 
L 53.9 30.6 
" style="fill: none; stroke: #000000; stroke-width: 0.8; stroke-linejoin: miter; stroke-linecap: square"/>
   </g>
   <g id="patch_4">
    <path d="M 853.2 310.6 
L 853.2 30.6 
" style="fill: none; stroke: #000000; stroke-width: 0.8; stroke-linejoin: miter; stroke-linecap: square"/>
   </g>
   <g id="patch_5">
    <path d="M 53.9 310.6 
L 853.2 310.6 
" style="fill: none; stroke: #000000; stroke-width: 0.8; stroke-linejoin: miter; stroke-linecap: square"/>
   </g>
   <g id="patch_6">
    <path d="M 53.9 30.6 
L 853.2 30.6 
" style="fill: none; stroke: #000000; stroke-width: 0.8; stroke-linejoin: miter; stroke-linecap: square"/>
   </g>
   <g id="text_16">
    <!-- Average Entanglement-Distribution Rate (EDR) over Time -->
    <g transform="translate(194.494844 24.6) scale(0.18 -0.18)">
     <defs>
      <path id="DejaVuSans-74" d="M 1172 4494 
L 1172 3500 
L 2356 3500 
L 2356 3053 
L 1172 3053 
L 1172 1153 
Q 1172 725 1289 603 
Q 1406 481 1766 481 
L 2356 481 
L 2356 0 
L 1766 0 
Q 1100 0 847 248 
Q 594 497 594 1153 
L 594 3053 
L 172 3053 
L 172 3500 
L 594 3500 
L 594 4494 
L 1172 4494 
z
" transform="scale(0.015625)"/>
      <path id="DejaVuSans-6c" d="M 603 4863 
L 1178 4863 
L 1178 0 
L 603 0 
L 603 4863 
z
" transform="scale(0.015625)"/>
      <path id="DejaVuSans-2d" d="M 313 2009 
L 1997 2009 
L 1997 1497 
L 313 1497 
L 313 2009 
z
" transform="scale(0.015625)"/>
      <path id="DejaVuSans-62" d="M 3116 1747 
Q 3116 2381 2855 2742 
Q 2594 3103 2138 3103 
Q 1681 3103 1420 2742 
Q 1159 2381 1159 1747 
Q 1159 1113 1420 752 
Q 1681 391 2138 391 
Q 2594 391 2855 752 
Q 3116 1113 3116 1747 
z
M 1159 2969 
Q 1341 3281 1617 3432 
Q 1894 3584 2278 3584 
Q 2916 3584 3314 3078 
Q 3713 2572 3713 1747 
Q 3713 922 3314 415 
Q 2916 -91 2278 -91 
Q 1894 -91 1617 61 
Q 1341 213 1159 525 
L 1159 0 
L 581 0 
L 581 4863 
L 1159 4863 
L 1159 2969 
z
" transform="scale(0.015625)"/>
      <path id="DejaVuSans-75" d="M 544 1381 
L 544 3500 
L 1119 3500 
L 1119 1403 
Q 1119 906 1312 657 
Q 1506 409 1894 409 
Q 2359 409 2629 706 
Q 2900 1003 2900 1516 
L 2900 3500 
L 3475 3500 
L 3475 0 
L 2900 0 
L 2900 538 
Q 2691 219 2414 64 
Q 2138 -91 1772 -91 
Q 1169 -91 856 284 
Q 544 659 544 1381 
z
M 1991 3584 
L 1991 3584 
z
" transform="scale(0.015625)"/>
     </defs>
     <use xlink:href="#DejaVuSans-41"/>
     <use xlink:href="#DejaVuSans-76" transform="translate(62.533203 0)"/>
     <use xlink:href="#DejaVuSans-65" transform="translate(121.712891 0)"/>
     <use xlink:href="#DejaVuSans-72" transform="translate(183.236328 0)"/>
     <use xlink:href="#DejaVuSans-61" transform="translate(224.349609 0)"/>
     <use xlink:href="#DejaVuSans-67" transform="translate(285.628906 0)"/>
     <use xlink:href="#DejaVuSans-65" transform="translate(349.105469 0)"/>
     <use xlink:href="#DejaVuSans-20" transform="translate(410.628906 0)"/>
     <use xlink:href="#DejaVuSans-45" transform="translate(442.416016 0)"/>
     <use xlink:href="#DejaVuSans-6e" transform="translate(505.599609 0)"/>
     <use xlink:href="#DejaVuSans-74" transform="translate(568.978516 0)"/>
     <use xlink:href="#DejaVuSans-61" transform="translate(608.1875 0)"/>
     <use xlink:href="#DejaVuSans-6e" transform="translate(669.466797 0)"/>
     <use xlink:href="#DejaVuSans-67" transform="translate(732.845703 0)"/>
     <use xlink:href="#DejaVuSans-6c" transform="translate(796.322266 0)"/>
     <use xlink:href="#DejaVuSans-65" transform="translate(824.105469 0)"/>
     <use xlink:href="#DejaVuSans-6d" transform="translate(885.628906 0)"/>
     <use xlink:href="#DejaVuSans-65" transform="translate(983.041016 0)"/>
     <use xlink:href="#DejaVuSans-6e" transform="translate(1044.564453 0)"/>
     <use xlink:href="#DejaVuSans-74" transform="translate(1107.943359 0)"/>
     <use xlink:href="#DejaVuSans-2d" transform="translate(1147.152344 0)"/>
     <use xlink:href="#DejaVuSans-44" transform="translate(1183.236328 0)"/>
     <use xlink:href="#DejaVuSans-69" transform="translate(1260.238281 0)"/>
     <use xlink:href="#DejaVuSans-73" transform="translate(1288.021484 0)"/>
     <use xlink:href="#DejaVuSans-74" transform="translate(1340.121094 0)"/>
     <use xlink:href="#DejaVuSans-72" transform="translate(1379.330078 0)"/>
     <use xlink:href="#DejaVuSans-69" transform="translate(1420.443359 0)"/>
     <use xlink:href="#DejaVuSans-62" transform="translate(1448.226562 0)"/>
     <use xlink:href="#DejaVuSans-75" transform="translate(1511.703125 0)"/>
     <use xlink:href="#DejaVuSans-74" transform="translate(1575.082031 0)"/>
     <use xlink:href="#DejaVuSans-69" transform="translate(1614.291016 0)"/>
     <use xlink:href="#DejaVuSans-6f" transform="translate(1642.074219 0)"/>
     <use xlink:href="#DejaVuSans-6e" transform="translate(1703.255859 0)"/>
     <use xlink:href="#DejaVuSans-20" transform="translate(1766.634766 0)"/>
     <use xlink:href="#DejaVuSans-52" transform="translate(1798.421875 0)"/>
     <use xlink:href="#DejaVuSans-61" transform="translate(1865.654297 0)"/>
     <use xlink:href="#DejaVuSans-74" transform="translate(1926.933594 0)"/>
     <use xlink:href="#DejaVuSans-65" transform="translate(1966.142578 0)"/>
     <use xlink:href="#DejaVuSans-20" transform="translate(2027.666016 0)"/>
     <use xlink:href="#DejaVuSans-28" transform="translate(2059.453125 0)"/>
     <use xlink:href="#DejaVuSans-45" transform="translate(2098.466797 0)"/>
     <use xlink:href="#DejaVuSans-44" transform="translate(2161.650391 0)"/>
     <use xlink:href="#DejaVuSans-52" transform="translate(2238.652344 0)"/>
     <use xlink:href="#DejaVuSans-29" transform="translate(2308.134766 0)"/>
     <use xlink:href="#DejaVuSans-20" transform="translate(2347.148438 0)"/>
     <use xlink:href="#DejaVuSans-6f" transform="translate(2378.935547 0)"/>
     <use xlink:href="#DejaVuSans-76" transform="translate(2440.117188 0)"/>
     <use xlink:href="#DejaVuSans-65" transform="translate(2499.296875 0)"/>
     <use xlink:href="#DejaVuSans-72" transform="translate(2560.820312 0)"/>
     <use xlink:href="#DejaVuSans-20" transform="translate(2601.933594 0)"/>
     <use xlink:href="#DejaVuSans-54" transform="translate(2633.720703 0)"/>
     <use xlink:href="#DejaVuSans-69" transform="translate(2691.679688 0)"/>
     <use xlink:href="#DejaVuSans-6d" transform="translate(2719.462891 0)"/>
     <use xlink:href="#DejaVuSans-65" transform="translate(2816.875 0)"/>
    </g>
   </g>
   <g id="legend_1">
    <g id="patch_7">
     <path d="M 63.7 103.448125 
L 193.893437 103.448125 
Q 196.693437 103.448125 196.693437 100.648125 
L 196.693437 40.4 
Q 196.693437 37.6 193.893437 37.6 
L 63.7 37.6 
Q 60.9 37.6 60.9 40.4 
L 60.9 100.648125 
Q 60.9 103.448125 63.7 103.448125 
z
" style="fill: #ffffff; opacity: 0.8; stroke: #cccccc; stroke-linejoin: miter"/>
    </g>
    <g id="line2d_30">
     <path d="M 66.5 48.937812 
L 80.5 48.937812 
L 94.5 48.937812 
" style="fill: none; stroke: #1f77b4; stroke-width: 2; stroke-linecap: square"/>
     <g>
      <use xlink:href="#m8abf52fa70" x="80.5" y="48.937812" style="fill: #1f77b4; stroke: #1f77b4"/>
     </g>
    </g>
    <g id="text_17">
     <!-- Q-RITA -->
     <g transform="translate(105.7 53.837812) scale(0.14 -0.14)">
      <defs>
       <path id="DejaVuSans-51" d="M 2522 4238 
Q 1834 4238 1429 3725 
Q 1025 3213 1025 2328 
Q 1025 1447 1429 934 
Q 1834 422 2522 422 
Q 3209 422 3611 934 
Q 4013 1447 4013 2328 
Q 4013 3213 3611 3725 
Q 3209 4238 2522 4238 
z
M 3406 84 
L 4238 -825 
L 3475 -825 
L 2784 -78 
Q 2681 -84 2626 -87 
Q 2572 -91 2522 -91 
Q 1538 -91 948 567 
Q 359 1225 359 2328 
Q 359 3434 948 4092 
Q 1538 4750 2522 4750 
Q 3503 4750 4090 4092 
Q 4678 3434 4678 2328 
Q 4678 1516 4351 937 
Q 4025 359 3406 84 
z
" transform="scale(0.015625)"/>
       <path id="DejaVuSans-49" d="M 628 4666 
L 1259 4666 
L 1259 0 
L 628 0 
L 628 4666 
z
" transform="scale(0.015625)"/>
      </defs>
      <use xlink:href="#DejaVuSans-51"/>
      <use xlink:href="#DejaVuSans-2d" transform="translate(81.460938 0)"/>
      <use xlink:href="#DejaVuSans-52" transform="translate(117.544922 0)"/>
      <use xlink:href="#DejaVuSans-49" transform="translate(187.027344 0)"/>
      <use xlink:href="#DejaVuSans-54" transform="translate(216.519531 0)"/>
      <use xlink:href="#DejaVuSans-41" transform="translate(269.853516 0)"/>
     </g>
    </g>
    <g id="line2d_31">
     <path d="M 66.5 69.487187 
L 80.5 69.487187 
L 94.5 69.487187 
" style="fill: none; stroke: #d62728; stroke-width: 2; stroke-linecap: square"/>
     <g>
      <use xlink:href="#mff746294db" x="80.5" y="69.487187" style="fill: #d62728; stroke: #d62728; stroke-linejoin: miter"/>
     </g>
    </g>
    <g id="text_18">
     <!-- Classical-RR -->
     <g transform="translate(105.7 74.387187) scale(0.14 -0.14)">
      <defs>
       <path id="DejaVuSans-43" d="M 4122 4306 
L 4122 3641 
Q 3803 3938 3442 4084 
Q 3081 4231 2675 4231 
Q 1875 4231 1450 3742 
Q 1025 3253 1025 2328 
Q 1025 1406 1450 917 
Q 1875 428 2675 428 
Q 3081 428 3442 575 
Q 3803 722 4122 1019 
L 4122 359 
Q 3791 134 3420 21 
Q 3050 -91 2638 -91 
Q 1578 -91 968 557 
Q 359 1206 359 2328 
Q 359 3453 968 4101 
Q 1578 4750 2638 4750 
Q 3056 4750 3426 4639 
Q 3797 4528 4122 4306 
z
" transform="scale(0.015625)"/>
      </defs>
      <use xlink:href="#DejaVuSans-43"/>
      <use xlink:href="#DejaVuSans-6c" transform="translate(69.824219 0)"/>
      <use xlink:href="#DejaVuSans-61" transform="translate(97.607422 0)"/>
      <use xlink:href="#DejaVuSans-73" transform="translate(158.886719 0)"/>
      <use xlink:href="#DejaVuSans-73" transform="translate(210.986328 0)"/>
      <use xlink:href="#DejaVuSans-69" transform="translate(263.085938 0)"/>
      <use xlink:href="#DejaVuSans-63" transform="translate(290.869141 0)"/>
      <use xlink:href="#DejaVuSans-61" transform="translate(345.849609 0)"/>
      <use xlink:href="#DejaVuSans-6c" transform="translate(407.128906 0)"/>
      <use xlink:href="#DejaVuSans-2d" transform="translate(434.912109 0)"/>
      <use xlink:href="#DejaVuSans-52" transform="translate(470.996094 0)"/>
      <use xlink:href="#DejaVuSans-52" transform="translate(540.478516 0)"/>
     </g>
    </g>
    <g id="line2d_32">
     <path d="M 66.5 90.036562 
L 80.5 90.036562 
L 94.5 90.036562 
" style="fill: none; stroke: #2ca02c; stroke-width: 2; stroke-linecap: square"/>
     <g>
      <use xlink:href="#m9d773c6516" x="80.5" y="90.036562" style="fill: #2ca02c; stroke: #2ca02c; stroke-linejoin: miter"/>
     </g>
    </g>
    <g id="text_19">
     <!-- Static-RIS -->
     <g transform="translate(105.7 94.936562) scale(0.14 -0.14)">
      <defs>
       <path id="DejaVuSans-53" d="M 3425 4513 
L 3425 3897 
Q 3066 4069 2747 4153 
Q 2428 4238 2131 4238 
Q 1616 4238 1336 4038 
Q 1056 3838 1056 3469 
Q 1056 3159 1242 3001 
Q 1428 2844 1947 2747 
L 2328 2669 
Q 3034 2534 3370 2195 
Q 3706 1856 3706 1288 
Q 3706 609 3251 259 
Q 2797 -91 1919 -91 
Q 1588 -91 1214 -16 
Q 841 59 441 206 
L 441 856 
Q 825 641 1194 531 
Q 1563 422 1919 422 
Q 2459 422 2753 634 
Q 3047 847 3047 1241 
Q 3047 1584 2836 1778 
Q 2625 1972 2144 2069 
L 1759 2144 
Q 1053 2284 737 2584 
Q 422 2884 422 3419 
Q 422 4038 858 4394 
Q 1294 4750 2059 4750 
Q 2388 4750 2728 4690 
Q 3069 4631 3425 4513 
z
" transform="scale(0.015625)"/>
      </defs>
      <use xlink:href="#DejaVuSans-53"/>
      <use xlink:href="#DejaVuSans-74" transform="translate(63.476562 0)"/>
      <use xlink:href="#DejaVuSans-61" transform="translate(102.685547 0)"/>
      <use xlink:href="#DejaVuSans-74" transform="translate(163.964844 0)"/>
      <use xlink:href="#DejaVuSans-69" transform="translate(203.173828 0)"/>
      <use xlink:href="#DejaVuSans-63" transform="translate(230.957031 0)"/>
      <use xlink:href="#DejaVuSans-2d" transform="translate(285.9375 0)"/>
      <use xlink:href="#DejaVuSans-52" transform="translate(322.021484 0)"/>
      <use xlink:href="#DejaVuSans-49" transform="translate(391.503906 0)"/>
      <use xlink:href="#DejaVuSans-53" transform="translate(420.996094 0)"/>
     </g>
    </g>
   </g>
  </g>
 </g>
 <defs>
  <clipPath id="p2e5902860e">
   <rect x="53.9" y="30.6" width="799.3" height="280"/>
  </clipPath>
 </defs>
</svg>
